<?xml version="1.0" encoding="utf-8"?>
<!-- Generator: Adobe Illustrator 26.0.0, SVG Export Plug-In . SVG Version: 6.00 Build 0)  -->
<svg version="1.1" id="Capa_1" xmlns="http://www.w3.org/2000/svg" xmlns:xlink="http://www.w3.org/1999/xlink" x="0px" y="0px"
	 viewBox="0 0 595.28 841.89" style="enable-background:new 0 0 595.28 841.89;" xml:space="preserve">
<style type="text/css">
	.st0{fill:#84AED3;}
</style>
<path class="st0" d="M337.98,249.83c8.54-0.11,14.45,3.8,18.3,10.64c3.95,7.02,3.31,14.15-1.22,20.68c-2.36,3.4-5.25,6.48-8.18,9.43
	c-30.23,30.32-60.39,60.71-90.92,90.72c-5.41,5.32-6.02,8.14-0.22,13.82c31.57,30.94,62.73,62.3,93.89,93.66
	c11.14,11.21,11.96,23.1,2.76,32.2c-8.63,8.53-21.49,8-31.63-1.91c-16.67-16.31-33.03-32.93-49.52-49.42
	c-20.67-20.67-41.39-41.31-62.01-62.04c-13.56-13.63-13.56-25.01,0.06-38.66c36.38-36.47,72.86-72.85,109.24-109.32
	C324.1,254.04,329.94,249.31,337.98,249.83z"/>
</svg>
