<?xml version="1.0" encoding="utf-8"?>
<!-- Generator: Adobe Illustrator 26.0.0, SVG Export Plug-In . SVG Version: 6.00 Build 0)  -->
<svg version="1.1" id="Capa_1" xmlns="http://www.w3.org/2000/svg" xmlns:xlink="http://www.w3.org/1999/xlink" x="0px" y="0px"
	 viewBox="0 0 595.28 841.89" style="enable-background:new 0 0 595.28 841.89;" xml:space="preserve">
<style type="text/css">
	.st0{fill:#84AED3;}
</style>
<g>
	<path class="st0" d="M203.62,388.28c-0.99-0.25-2.92-0.38-4.47-1.21c-5.4-2.86-8.81-7.55-7.08-13.55
		c2.8-9.76,10.02-16.31,19.24-19.79c5.83-2.2,10.73,1.22,13.78,6.48c3.83,6.62,1.05,12.17-3.7,16.85
		C216.52,381.87,212.53,388.23,203.62,388.28z"/>
	<path class="st0" d="M180.12,288.36c2.95,0,6-0.47,8.84,0.09c7.1,1.4,10.91,6.22,10.89,13.27c-0.02,8.02-7.21,12.6-18.81,12.69
		c-12.79,0.09-19.7-3.99-20.18-12.34c-0.43-7.32,3.56-11.85,10.45-13.5c2.79-0.67,5.87-0.11,8.82-0.11
		C180.12,288.43,180.12,288.4,180.12,288.36z"/>
	<path class="st0" d="M291.84,202.54c-0.13,5.1,0.92,10.52-3.12,14.71c-5.8,6.01-12.25,6.64-18.53,1
		c-6.84-6.15-6.74-25.82,0.12-31.76c6.42-5.57,12.84-4.63,18.56,1.31C292.93,192.01,291.61,197.47,291.84,202.54z"/>
	<path class="st0" d="M378,288.26c6.38-0.3,12.78-0.61,16.79,5.74c3.62,5.74,3.1,11.24-1.61,16.11c-5.6,5.78-23.62,6.29-30.16,0.83
		c-5.15-4.3-6.52-9.67-3.32-15.76C363.71,287.51,370.94,287.95,378,288.26z"/>
	<path class="st0" d="M342.79,248.64c-6.23-0.54-10.9-4.39-11.37-12.25c-0.5-8.44,13.96-23.26,22.31-22.55
		c7.57,0.64,12.12,5.34,12.44,12.96C366.52,234.86,352.32,248.58,342.79,248.64z"/>
	<path class="st0" d="M216.08,248.59c-9.72,0.35-23.99-12.88-24.23-21.1c-0.25-8.59,4.77-12.97,12.73-13.64
		c7.54-0.63,22.52,14.17,22.16,21.89C226.4,243.24,222.25,247.94,216.08,248.59z"/>
	<path class="st0" d="M403.75,381.2c-6.6-0.35-8.48-3.53-10.89-8.48c-11.02-22.67-27.98-38.73-52.97-44.87
		c-6.36-1.56-7.66-3.73-6.07-10.35c6.08-25.42-8.65-51.08-33.49-59.78c-25.08-8.79-55.96,3.33-68.42,26.86
		c-11.68,22.04-4.29,47.91,18.75,63.62c4.68,3.19,5.98,4.87,2.05,9.78c-9.4,11.74-15.19,25.28-16.65,40.34
		c-0.54,5.54-2.92,7.03-8.25,7.89c-16.67,2.69-28.23,12.51-33.73,28.39c-10.1,29.14,10.86,56.52,44.05,57.21
		c27.32,0.57,54.66,0.12,82,0.12c26.96,0,53.93,0.3,80.89-0.07c31.72-0.44,56.04-25.17,56.25-56.52
		C457.44,406.79,434.13,382.79,403.75,381.2z M241.48,312.14c-2.34-12.53,1.79-23.61,11.52-31.65
		c13.76-11.36,29.56-15.17,46.32-7.42c13.75,6.36,21.29,17.63,21.53,27.36c0.23,19.67-3.01,23.31-16.51,25.99
		c-10.49,2.09-20.61,5.55-29.63,11.49c-3.25,2.13-6.06,3.51-10.1,1.74C252.27,334.27,243.95,325.41,241.48,312.14z M401.01,477.11
		c-27.35,0.22-54.7,0.05-82.05,0.05c-26.98,0-53.96,0.11-80.94-0.04c-19-0.1-31.46-11.02-32.22-27.78
		c-0.69-15.2,10.78-27.66,28.25-29.76c10.29-1.24,14.98-6.66,15.47-16.64c2.64-53.08,75.1-78.31,106.81-52.57
		c10.54,8.56,19.64,17.97,24.54,30.74c3.77,9.85,10.04,14.02,21,14.05c23.73,0.06,40.91,18.43,40.64,41.92
		C442.26,459.65,424.58,476.92,401.01,477.11z"/>
</g>
</svg>
