<?xml version="1.0" encoding="utf-8"?>
<!-- Generator: Adobe Illustrator 26.0.0, SVG Export Plug-In . SVG Version: 6.00 Build 0)  -->
<svg version="1.1" id="Capa_1" xmlns="http://www.w3.org/2000/svg" xmlns:xlink="http://www.w3.org/1999/xlink" x="0px" y="0px"
	 viewBox="0 0 595.28 841.89" style="enable-background:new 0 0 595.28 841.89;" xml:space="preserve">
<style type="text/css">
	.st0{fill:#84AED3;}
</style>
<path class="st0" d="M435.66,328.52c-3.73-27.36-25.12-47.49-52.05-48.09c-6.25-0.14-8.7-2.6-11.06-7.81
	c-14.44-31.86-46.01-50.7-78.95-47.55c-36.6,3.5-66.77,28.32-74.55,62.76c-2.36,10.42-3.94,19.41-17.2,19.25
	c-1.46-0.02-2.97,1.03-4.38,1.74c-14.92,7.54-23.33,19.83-24.18,36.33c-0.85,16.54,6.57,29.43,20.46,38.62
	c2.6,1.72,7.65,1.47,4.51,7.87c-13.07,26.7,1.06,49.04,30.73,49.21c19.13,0.11,38.27,0.02,57.4,0.02c19.77,0,39.54,0.17,59.31-0.04
	c23.95-0.25,42.27-17.61,41.53-40.54c-0.27-8.47,2.46-10.78,9.99-12.98C422.84,379.83,439.16,354.18,435.66,328.52z M347.86,428
	c-20.69,0.37-41.4,0.09-62.1,0.1c-19.43,0.01-38.85,0.09-58.28-0.02c-13.22-0.07-21.32-6.55-22.09-17.36
	c-0.83-11.67,5.19-18.77,18.62-20.68c9.5-1.35,12.38-7.64,13.72-15.71c3.74-22.63,17-37.31,38.24-42.37
	c22.22-5.29,43.73,4.9,53.35,26.47c4.03,9.03,9.27,13.23,19.32,13.52c15.88,0.46,27.41,13.48,26.91,28.8
	C375.08,415.72,363.29,427.73,347.86,428z M387.94,377.17c-4.51,1.03-7.04-0.02-9.75-3.38c-7.41-9.2-17.42-13.91-29-14.54
	c-5.1-0.28-6.91-2.66-8.95-6.68c-10.98-21.67-28.42-33.62-45.57-34.1c-37.5-0.07-62.45,19.52-68.2,49.13
	c-1.93,9.92-6.44,11.47-14.86,9.9c-15.49-2.88-26.09-15.33-25.84-30.82c0.25-15.53,11.07-28.12,26.95-29.54
	c10.52-0.94,14.88-5.45,16.15-15.89c4-32.96,28.13-58.24,58.91-62.87c33.73-5.08,60.28,9.82,74.91,42.48
	c3.55,7.93,8.5,11.42,17.53,11.54c23.16,0.31,41.54,16.89,43.25,37.78C425.39,353.66,411.43,371.83,387.94,377.17z"/>
</svg>
