<svg id="Capa_1" data-name="Capa 1" xmlns="http://www.w3.org/2000/svg" viewBox="0 0 436.09 436.09"><defs><style>.cls-1{fill:#fff;}.cls-2{fill:#87afd4;}</style></defs><circle class="cls-1" cx="218.04" cy="218.04" r="218.04"/><path class="cls-2" d="M392.92,473.39c-.24,43.54-23.64,76.28-64,92.49-34.48,13.87-77.82,3.92-104-23.89-28.58-30.3-37.41-72.78-17.83-108.39,23.81-43.32,51-84.79,77-126.88,5.6-9.06,14.7-11.08,20.56-1.67,28.18,45.27,60.25,88.23,82.79,136.87A62.19,62.19,0,0,1,392.92,473.39ZM295.3,550.06c17.93.54,33.09-6.27,47.17-16.35,7-5,9.55-10.09,2.29-17.3q-47.11-46.77-93.86-93.9c-5-5-9-6.74-13.76.61-16.77,26.13-24.18,53.67-10.28,83.09C240.34,534.71,264.65,547.79,295.3,550.06Z" transform="translate(-76.85 -210.81)"/><path class="cls-1" d="M295.3,550.06c-30.65-2.27-55-15.35-68.44-43.85-13.9-29.42-6.49-57,10.28-83.09,4.72-7.35,8.75-5.65,13.76-.61q46.83,47,93.86,93.9c7.26,7.21,4.73,12.28-2.29,17.3C328.39,543.79,313.23,550.6,295.3,550.06Z" transform="translate(-76.85 -210.81)"/></svg>