<?xml version="1.0" encoding="utf-8"?>
<!-- Generator: Adobe Illustrator 26.0.0, SVG Export Plug-In . SVG Version: 6.00 Build 0)  -->
<svg version="1.1" id="Capa_1" xmlns="http://www.w3.org/2000/svg" xmlns:xlink="http://www.w3.org/1999/xlink" x="0px" y="0px"
	 viewBox="0 0 612 394.02" style="enable-background:new 0 0 612 394.02;" xml:space="preserve">
<style type="text/css">
	.st0{fill:#84AED3;}
</style>
<path class="st0" d="M304.24,116.67c22.65,0.91,40.04,10.85,50.21,31.18c10.05,20.09,8.27,40.01-4.99,58.33
	c-12.19,16.84-24.82,33.36-37.29,50c-5.2,6.94-10.39,6.89-15.62-0.1c-12.36-16.51-24.86-32.92-37-49.59
	c-13.45-18.45-15.36-38.48-5.17-58.76C264.49,127.63,281.73,117.7,304.24,116.67z M304.36,148.99
	c-13.32,0.03-24.14,10.89-24.04,24.13c0.1,13.23,11.03,23.93,24.34,23.84c13.13-0.1,23.61-10.7,23.65-23.9
	C328.35,159.6,317.74,148.95,304.36,148.99z"/>
</svg>
