<?xml version="1.0" encoding="utf-8"?>
<!-- Generator: Adobe Illustrator 26.0.0, SVG Export Plug-In . SVG Version: 6.00 Build 0)  -->
<svg version="1.1" id="Capa_1" xmlns="http://www.w3.org/2000/svg" xmlns:xlink="http://www.w3.org/1999/xlink" x="0px" y="0px"
	 viewBox="0 0 595.3 841.9" style="enable-background:new 0 0 595.3 841.9;" xml:space="preserve">
<style type="text/css">
	.st0{fill:#D9EBFB;}
</style>
<g>
	<path class="st0" d="M397.7,365.8c-0.9,24.6-8.3,47-22.9,66.8c-3.2,4.3-1,5.9,1.5,8.4c24.3,24.2,48.5,48.4,72.7,72.6
		c3.1,3.1,6.5,6,7.4,10.4c1.4,6.6-0.2,12.5-6,16.3c-6,4-12.4,4-17.9-0.8c-5.7-4.9-10.9-10.4-16.2-15.8
		c-20.2-20.2-40.5-40.4-60.6-60.7c-3.5-3.5-5.5-4.5-10.4-1.3c-41.9,27.6-85.9,30.6-129.5,6c-43.7-24.7-64.1-64.2-61.7-114.2
		c2.8-59.6,53.2-109.7,112.5-113.5c62.6-4,117.3,37.9,128.8,98.5C397.1,347.6,397.7,356.7,397.7,365.8z M184.2,361.4
		c-0.2,50.7,40.3,92,90.5,92.3c51.1,0.2,92.6-40.4,92.8-90.8c0.2-51.1-40.3-92.3-91-92.5C225.2,270.2,184.4,310.5,184.2,361.4z"/>
	<path class="st0" d="M272.7,432.8c-36.4-0.7-67.8-32.7-68.1-69.4c-0.1-9,5.9-16,14.2-16.6c8.5-0.5,15.4,5.6,16.1,14.5
		c2.1,24.9,15.1,38.5,39.8,41.7c11.3,1.5,16.8,6.9,16.2,15.9C290.2,428,283.6,433,272.7,432.8z"/>
</g>
</svg>
