<?xml version="1.0" encoding="utf-8"?>
<!-- Generator: Adobe Illustrator 26.0.0, SVG Export Plug-In . SVG Version: 6.00 Build 0)  -->
<svg version="1.1" id="Capa_1" xmlns="http://www.w3.org/2000/svg" xmlns:xlink="http://www.w3.org/1999/xlink" x="0px" y="0px"
	 viewBox="0 0 595.28 841.89" style="enable-background:new 0 0 595.28 841.89;" xml:space="preserve">
<style type="text/css">
	.st0{fill:#84AED3;}
</style>
<g>
	<path class="st0" d="M315.82,410.32c-0.31,1.31-0.58,3.16-1.2,4.88c-6.6,18.19-13.23,36.37-19.92,54.52
		c-2.28,6.19-6.36,10.31-13.33,7.76c-7.16-2.62-8.28-8.21-5.74-15.08c6.72-18.15,13.23-36.37,19.91-54.53c2-5.44,5.69-8.92,11.9-7.8
		C312.67,401.01,315.2,404.67,315.82,410.32z"/>
	<path class="st0" d="M227.67,410.61c-3.42,10.46-6.76,22.58-12.86,33.57c-2.28,4.11-6.91,4.86-11.43,3.07
		c-4.63-1.83-6.88-5.72-5.92-10.26c2.48-11.7,6.89-22.83,12.03-33.59c2.06-4.31,6.66-5.48,11.17-4.05
		C225.12,400.76,227.69,404.09,227.67,410.61z"/>
	<path class="st0" d="M391,441.83c-1.85,6.79-4.32,15.07-8.47,22.61c-2.2,4-6.37,5.91-11.14,4.24c-4.95-1.73-7.75-5.44-6.85-10.67
		c1.48-8.51,4.37-16.69,8.72-24.13c2.38-4.07,6.68-5.3,11.34-3.65C389.27,431.89,391.35,435.33,391,441.83z"/>
	<path class="st0" d="M374.46,284.31c-5.6,0.22-8.14-1.44-10.3-6.48c-5.72-13.36-14.9-24.18-26.97-32.24
		c-47.89-31.99-109.91-2.76-118.46,55.99c-0.84,5.81-2.05,8.01-8.24,9.16c-21.09,3.92-35.42,22.27-34.07,42.16
		c1.52,22.35,17.56,38.06,40.34,39.1c9.56,0.44,19.15,0.16,28.73,0.19c10.55,0.03,10.51,0.01,7.05,9.5
		c-7.37,20.27-14.67,40.57-22.06,60.83c-1.92,5.27-1.28,9.96,3.49,13.1c4.3,2.83,9.19,2.63,12.66-1.29c2.35-2.65,3.74-6.33,5-9.75
		c8-21.68,16.11-43.32,23.55-65.19c2-5.86,4.85-7.62,10.64-7.31c8.01,0.42,16.06,0.11,24.09,0.11c8.96,0,17.93,0.19,26.88-0.07
		c5.48-0.15,6.27,1.63,4.32,6.53c-3.65,9.16-6.64,18.57-10.1,27.8c-2.5,6.67-2.23,12.55,5.23,15.26c7.38,2.69,11.56-1.5,13.96-8.2
		c3.54-9.86,8.16-19.46,10.51-29.59c2.25-9.69,6.8-12.11,16.44-12.07c29.05,0.11,52.77-24.32,52.27-52.44
		C428.89,307.86,404.47,283.14,374.46,284.31z M378.58,380.26c-26.83,0.51-53.69,0.12-80.53,0.12c0,0.01,0,0.02,0,0.03
		c-25.91,0-51.81,0.04-77.72-0.02c-17.4-0.04-30.38-10.75-31.64-25.93c-1.42-17.22,8.55-29.79,26.88-32.38
		c9.69-1.37,13.36-5.92,14.52-15.53c4.79-39.6,33.86-64.63,71.66-61.41c24.96,2.13,42.05,16.46,52.02,38.91
		c4.25,9.56,9.81,13.61,20.6,12.55c22.42-2.21,41.28,16.15,42.51,40.26C418.08,360.12,401.14,379.83,378.58,380.26z"/>
</g>
</svg>
