<?xml version="1.0" encoding="utf-8"?>
<!-- Generator: Adobe Illustrator 26.0.0, SVG Export Plug-In . SVG Version: 6.00 Build 0)  -->
<svg version="1.1" id="Capa_1" xmlns="http://www.w3.org/2000/svg" xmlns:xlink="http://www.w3.org/1999/xlink" x="0px" y="0px"
	 viewBox="0 0 595.28 841.89" style="enable-background:new 0 0 595.28 841.89;" xml:space="preserve">
<style type="text/css">
	.st0{fill:#84AED3;}
</style>
<g>
	<path class="st0" d="M371.05,479.85c-0.14,9.58-7.83,17-17.44,16.81c-9.7-0.19-16.78-7.66-16.65-17.56
		c0.13-9.75,7.7-17.14,17.35-16.92C363.7,462.4,371.19,470.3,371.05,479.85z"/>
	<path class="st0" d="M289.85,438.8c9.3-0.08,16.91,7.49,17.09,17.03c0.18,9.56-7.03,17.44-16.29,17.79
		c-9.69,0.37-17.71-7.57-17.69-17.51C272.99,446.87,280.77,438.88,289.85,438.8z"/>
	<path class="st0" d="M237.62,438.9c-0.04,9.48-7.46,16.73-17.19,16.83c-9.58,0.09-17.34-7.26-17.5-16.59
		c-0.16-9.58,8.04-17.64,17.82-17.5C230.05,421.77,237.66,429.55,237.62,438.9z"/>
	<path class="st0" d="M399.95,421.64c9.78-0.21,17.19,6.89,17.38,16.66c0.19,9.95-6.74,17.27-16.54,17.46
		c-9.81,0.19-17.32-6.96-17.42-16.6C383.26,429.33,390.34,421.85,399.95,421.64z"/>
	<path class="st0" d="M260.65,496.52c0.16,9.86-6.87,17.15-16.7,17.3c-9.93,0.16-17.2-6.81-17.35-16.62
		c-0.16-9.89,6.88-17.23,16.65-17.36C253.03,479.71,260.48,486.86,260.65,496.52z"/>
	<path class="st0" d="M392.8,288.36c-7.97,0.21-11.05-2.55-14.48-9.38c-15.63-31.14-41.33-47.48-76.11-49.29
		c-8.56-0.3-16.74,1.18-24.69,3.8c-36.41,12-55.64,38.38-61.92,75.12c-1.01,5.91-2.33,8.42-9.13,9.29
		c-13.27,1.71-23.79,9.16-31.02,20.66c-18.98,30.21,1.4,69.67,37.05,70.58c32.62,0.84,65.27,0.33,97.91,0.27
		c5.27-0.01,8.74-0.08,9.03,7.3c0.4,10.06,7.78,15.85,17.17,15.78c9.41-0.07,16.29-5.64,16.95-16.05c0.42-6.62,3.15-7.14,8.3-7.04
		c11.11,0.21,22.22,0.21,33.33-0.03c32.33-0.68,57.57-27.44,57.18-60.44C451.97,315.18,425.16,287.49,392.8,288.36z M392.87,396.3
		c-29.49,0.43-58.99,0.1-88.49,0.1c-29.5,0-58.99,0.17-88.49-0.07c-15.48-0.13-27.71-8.64-32.3-21.84
		c-4.7-13.5-1.4-25.23,8.55-35.21c5.37-5.38,12.23-8.49,19.55-8.72c12.14-0.37,16.17-7.31,17.13-17.91
		c1.45-15.96,7.17-30.19,17.53-42.53c34.18-40.7,95.9-34.11,119.24,13.63c6.52,13.34,12.87,19.4,28.87,17.96
		c23.57-2.11,44.53,22.56,44.73,49.19C439.41,374.97,418.45,395.93,392.87,396.3z"/>
</g>
</svg>
