<?xml version="1.0" encoding="utf-8"?>
<!-- Generator: Adobe Illustrator 26.0.0, SVG Export Plug-In . SVG Version: 6.00 Build 0)  -->
<svg version="1.1" id="Capa_1" xmlns="http://www.w3.org/2000/svg" xmlns:xlink="http://www.w3.org/1999/xlink" x="0px" y="0px"
	 viewBox="0 0 595.28 841.89" style="enable-background:new 0 0 595.28 841.89;" xml:space="preserve">
<style type="text/css">
	.st0{fill:#84AED3;}
</style>
<g>
	<path class="st0" d="M431.85,408.49c-4.96-0.36-9.58-0.37-14.08-1.11c-6.55-1.06-10.27-5.65-10.42-11.9
		c-0.15-6.24,3.25-11.19,9.83-12.33c10.23-1.77,20.58-1.71,30.81,0.03c6.6,1.12,9.76,5.62,9.66,12.26
		c-0.1,6.71-3.65,10.85-10.18,11.85C442.2,408.1,436.82,408.14,431.85,408.49z"/>
	<path class="st0" d="M162.39,407.87c-4.21,0-8.46,0.4-12.61-0.09c-7.4-0.88-12.27-5.32-12.15-12.81c0.12-7.5,5.18-12.02,12.57-12.4
		c8.76-0.45,17.6-0.34,26.35,0.29c6.91,0.5,11.25,4.55,11.4,11.96c0.15,7.97-4.37,11.93-11.81,12.83c-4.54,0.55-9.16,0.5-13.74,0.72
		C162.39,408.21,162.39,408.04,162.39,407.87z"/>
	<path class="st0" d="M371.76,309.12c-0.27-3.24,0.71-6.18,2.92-8.45c6.43-6.59,12.76-13.31,19.61-19.45
		c5.35-4.79,11.47-4.31,16.55,0.66c5.09,4.99,5.63,11.3,1.06,16.58c-6.25,7.23-13.28,13.82-20.31,20.33
		c-3.69,3.41-8.4,3.65-12.89,1.33C374.31,317.87,371.67,314.3,371.76,309.12z"/>
	<path class="st0" d="M371.71,482.2c0.35-10.48,10.34-16.8,18.05-11.62c9.21,6.18,17.11,14.24,23.4,23.46
		c3.43,5.03,1.83,10.53-2.48,14.59c-3.87,3.64-8.79,5.46-13.65,2.17c-9.28-6.26-16.7-14.6-23.68-23.25
		C372.06,485.94,372.03,483.3,371.71,482.2z"/>
	<path class="st0" d="M224.24,308.65c-0.45,9.2-10.24,16.01-17.32,11.7c-10.09-6.16-18.25-14.95-24.95-24.72
		c-3.22-4.7-1.16-9.73,2.51-13.53c3.32-3.44,7.9-5.8,12.39-3.18c10.98,6.41,19.52,15.55,26.47,26.14
		C224.11,306.24,224.08,307.95,224.24,308.65z"/>
	<path class="st0" d="M310.03,530.11c-0.01,4.58,0.18,9.17-0.05,13.74c-0.34,6.76-4.53,10.67-10.81,11.33
		c-6.89,0.72-12.13-2.84-13.43-9.77c-1.9-10.16-1.89-20.55-0.01-30.7c1.29-6.99,6.46-10.25,13.49-9.58
		c6.58,0.62,10.39,4.57,10.77,11.25C310.25,520.94,310.04,525.53,310.03,530.11z"/>
	<path class="st0" d="M309.95,260.94c0,4.58,0.28,9.18-0.07,13.73c-0.46,6.16-4.19,9.76-10.22,10.5c-6.39,0.78-11.76-1.53-13.4-8.02
		c-2.74-10.83-2.4-21.96-0.28-32.85c1.26-6.49,6.47-9.69,12.75-9.18c6.85,0.56,11.09,4.82,11.36,12.07
		c0.17,4.58,0.03,9.16,0.03,13.75C310.06,260.94,310,260.94,309.95,260.94z"/>
	<path class="st0" d="M224.26,481.21c-0.15,3.6-1.56,6.75-3.98,9.26c-5.82,6.03-11.61,12.11-17.79,17.77
		c-5.91,5.41-12.54,5.84-18.23-0.21c-5.24-5.57-4.87-11.88,0.33-17.4c6.01-6.37,12.23-12.57,18.67-18.5
		c3.94-3.63,8.79-4.45,13.76-1.85C221.39,472.58,223.73,476.32,224.26,481.21z"/>
	<path class="st0" d="M297.92,312.06c-46.5-0.09-83.11,36.45-83.16,82.99c-0.05,46.58,36.48,83.27,82.88,83.26
		c46.34-0.01,83.4-36.88,83.42-82.99C381.1,349.1,344.19,312.15,297.92,312.06z M296.85,452.8c-31.67-0.22-56.88-26.3-56.6-58.55
		c0.28-31.78,26.21-56.92,58.47-56.68c31.36,0.23,57.35,26.96,56.93,58.55C355.25,427.6,328.86,453.03,296.85,452.8z"/>
</g>
</svg>
