<svg id="Capa_1" data-name="Capa 1" xmlns="http://www.w3.org/2000/svg" viewBox="0 0 436.09 436.09"><defs><style>.cls-1{fill:#fff;}.cls-2{fill:#84aed3;}</style></defs><circle class="cls-1" cx="218.04" cy="218.04" r="218.04"/><path class="cls-2" d="M330.85,357.64c0,1.75-.11,3.5-.11,5.25q0,47.08,0,94.16a3.88,3.88,0,0,0,1.82,3.68c23.76,16.75,34.78,39.76,32.28,68.66-2.95,34-30.55,61.56-64.54,65.3-41.19,4.53-78.11-25.21-81.38-66.26-2.24-28.08,8.57-50.59,31.44-67.2.7-.51,1.77-.68,2-1.77,1.2-.12.82-1.07.83-1.72,0-4.81,0-9.63,0-14.44a39.87,39.87,0,0,0,0-7.41c0-.83,0-1.65,0-2.47V326.08c0-.66,0-1.33-.08-2l.18-3a1.85,1.85,0,0,0,.34-1.51c3.67-16.39,13.4-27.16,29.83-31.17,22.55-5.5,45.22,11.1,47.06,34.23.65,8.15.14,16.33.27,24.5,0,1,.09,2,.13,3A33.09,33.09,0,0,0,330.85,357.64Zm17,191.24.44-.86a58.89,58.89,0,0,0,4.56-38.76c-4.18-19.27-15-33.69-32.57-42.88l-.46-.38-.27-.7c.05-.83.16-1.66.16-2.48q0-52.57,0-105.15c0-4.33-.13-8.65-.19-13a58.27,58.27,0,0,0-.07-13.78,20.78,20.78,0,0,0-.11-7.82c-.88-16-18.13-28-34.2-23.81a27.65,27.65,0,0,0-21,27.16q0,68.24,0,136.46a4.37,4.37,0,0,1-2.64,4.44c-23.22,13-35.6,38.6-31.24,64.37a62.28,62.28,0,0,0,82,48.9,58.55,58.55,0,0,0,28.07-20,9.09,9.09,0,0,0,2.9-4.09l1.37-1.92a5.26,5.26,0,0,0,1.56-2.59l.17-.45.36-.53a.32.32,0,0,0,.17-.41,2.45,2.45,0,0,0,.87-1.64Z" transform="translate(-72.41 -222.4)"/><path class="cls-2" d="M319.91,560.55a49.26,49.26,0,0,1-28.61,9c-27.37-.18-49.39-24.21-46.72-51.45,1.95-19.84,12.55-33.45,31.06-40.8,1.89-.75,1.91-1.87,1.91-3.41q0-40.19,0-80.38c0-8.17,4.22-13.87,11.45-15.43,9-1.95,17.24,4.79,17.28,14.28.06,14.36,0,28.71,0,43.07,0,13,0,26,0,39.06a2.49,2.49,0,0,0,2,2.81c23.88,8.59,37,35.14,29,59.13a53,53,0,0,1-8.79,16.17l-7.08,6.93-.48.3-.22,0-.07.22h-.13l0,.13Z" transform="translate(-72.41 -222.4)"/></svg>