<?xml version="1.0" encoding="utf-8"?>
<!-- Generator: Adobe Illustrator 26.0.0, SVG Export Plug-In . SVG Version: 6.00 Build 0)  -->
<svg version="1.1" id="Capa_1" xmlns="http://www.w3.org/2000/svg" xmlns:xlink="http://www.w3.org/1999/xlink" x="0px" y="0px"
	 viewBox="0 0 595.28 841.89" style="enable-background:new 0 0 595.28 841.89;" xml:space="preserve">
<style type="text/css">
	.st0{fill:#84AED3;}
</style>
<g>
	<path class="st0" d="M389.37,415.93c-4.07,11.24-7.5,24.06-13.65,35.8c-2.08,3.97-6.47,4.86-10.66,3.24
		c-4.57-1.77-7.01-5.59-5.79-10.34c3.1-11.98,7.53-23.56,12.56-34.85c2.04-4.58,6.5-5.72,11.05-4.37
		C387.14,406.68,389.3,410.04,389.37,415.93z"/>
	<path class="st0" d="M233,411.67c-2.69,9.21-6.17,19.95-11.25,30.01c-2.2,4.37-6.76,5.28-11.37,3.49
		c-4.37-1.69-6.53-5.37-5.48-9.71c2.65-10.96,6.44-21.6,11.6-31.64c2.12-4.13,6.5-4.86,10.66-3.39
		C231.42,401.93,233.47,405.32,233,411.67z"/>
	<path class="st0" d="M250.15,449.28c-1.74,5.37-2.93,12.33-7.17,17.98c-2.4,3.19-5.93,4.47-10.05,2.96c-4.36-1.6-6.93-5-6.35-9.28
		c0.89-6.57,3.16-12.94,6.63-18.65c2.36-3.87,6.37-5.09,10.63-3.59C248.02,440.17,250.38,443.33,250.15,449.28z"/>
	<path class="st0" d="M370.96,290.75c-6.01-0.02-7.18-3.33-9.09-7.2c-14.08-28.52-44.28-43.95-75.55-38.66
		c-30.64,5.19-55.14,30.66-58.6,61.64c-0.62,5.58-2,7.58-7.92,8.51c-17.24,2.7-29.9,18.96-29.71,36.64
		c0.2,18.08,12.76,33.2,30.05,36.43c7.2,1.35,14.43,1.02,21.66,1.04c18.79,0.04,18.99,0.06,14.69,18.37
		c-1.45,6.19-0.15,10.99,5.9,12.25c5.69,1.19,4.89,4.11,4.42,8.01c-1.06,8.91-1.91,17.84-2.75,26.78c-0.41,4.37,0.59,8.26,5.3,9.75
		c4.8,1.52,8.31-0.42,11.04-4.57c10.97-16.7,22.09-33.3,33.11-49.96c4-6.04,3.12-10.88-3.77-14.05c-1.67-0.77-4.38-0.55-3.61-3.7
		c0.62-2.52,2.61-2.82,4.73-2.82c10.07-0.01,20.15-0.01,31.02-0.01c-1.14,3.44-1.88,5.9-2.75,8.3
		c-7.15,19.85-14.29,39.72-21.53,59.54c-2.28,6.24-3.17,12.17,4.08,15.57c5.9,2.77,10.74-0.47,13.92-9.07
		c7.92-21.42,16.03-42.78,23.36-64.41c2.48-7.32,5.49-10.11,13.8-10.29c27.55-0.61,48.38-23.24,47.82-50.41
		C420.05,311.78,398.66,290.84,370.96,290.75z M307.56,403.4c-11.57,17.48-22.33,33.75-33.1,50.02c-0.6-0.2-1.2-0.39-1.8-0.59
		c0.89-8.99,1.56-18.01,2.74-26.97c1.71-13.04,1.86-13.02-11.06-14.59c4.07-15.89,8.12-31.71,12.18-47.53
		c0.84-3.27,2.9-4.61,6.34-4.49c5.78,0.19,11.58,0.24,17.35,0c5.34-0.22,6.47,1.75,4.88,6.74c-3.84,12.06-7.29,24.25-11.21,37.41
		C298.65,403.4,302.08,403.4,307.56,403.4z M368.41,376.89c-9.45-1.42-17.36-3.05-26.8,0.25c-6.46,2.26-14.35,0.28-21.59,0.49
		c-4.45,0.12-6.17-0.7-4.87-5.87c5.61-22.24,4.04-24.11-18.51-24.12c-0.29,0-0.58,0-0.87,0c-27.69,0.23-26.42-3.45-33.14,24.58
		c-1.06,4.43-3.05,5.59-7.12,5.41c-4.92-0.22-9.85-0.05-14.78-0.05c0-0.02,0-0.03,0-0.05c-4.64,0-9.28,0.13-13.91-0.03
		c-13.88-0.48-24.47-10.39-25.4-23.62c-1.01-14.43,8.21-26.2,22.31-28.5c12.03-1.96,13.14-3.12,14.52-15.16
		c3.17-27.56,23.9-50.31,49.65-54.49c27.61-4.47,52.94,9.12,65.05,35.45c3.59,7.8,8.36,11.36,17.34,11.11
		c22.91-0.64,39.23,16.02,38.68,38.46C408.46,362.96,390.73,380.23,368.41,376.89z"/>
</g>
</svg>
