<svg id="Capa_1" data-name="Capa 1" xmlns="http://www.w3.org/2000/svg" viewBox="0 0 436.09 436.09"><defs><style>.cls-1{fill:#fff;}.cls-2{fill:#84aed3;}</style></defs><circle class="cls-1" cx="218.04" cy="218.04" r="218.04"/><path class="cls-2" d="M317.67,466c0,17.15.41,34.31-.12,51.44-.48,15.42-5.9,29-19.09,38.11-17.18,11.86-48.55,10.82-62.63-9.67a50.12,50.12,0,0,1-8.78-24.72,117.16,117.16,0,0,1-.1-13.12c.15-5.09,3.89-8.44,9.06-8.38a8.46,8.46,0,0,1,8.78,8.33c.27,5.64-.28,11.28,1.2,16.9,3.43,13.06,12.33,20.26,25.67,20.29,16,0,27.5-10.75,27.61-26.91.25-35.37.07-70.73.13-106.1,0-2.22-.62-2.44-2.64-2a61.56,61.56,0,0,0-24.1,11.51c-.84.65-1.66,1.32-2.5,2-5.44,4.21-9.72,4-15-.34-19.08-15.69-40-18.84-62.58-8.52-5,2.3-9.43,5.77-13.76,9.23-3.21,2.56-6.76,4.13-10.68,2.19s-5.1-5.55-5-9.74c.72-28.23,10.5-53,28.78-74.4,22-25.79,50.43-40.72,83.19-47.86a203.2,203.2,0,0,1,21.64-3c2.31-.24,2.7-1.17,2.59-3.11s-.05-4,0-6c.09-5.41,3.84-9.32,9-9.43,4.6-.09,8.95,4.1,9.27,9a24.16,24.16,0,0,1,0,5.31c-.57,3.53,1.37,4.57,4.29,4.73,26.43,1.44,50.69,9.74,72.76,24.07,27.53,17.89,47.06,42,55.36,74.33a104.83,104.83,0,0,1,3.44,26.17c0,4-.7,7.73-4.6,9.62s-7.86.82-11.19-2a63,63,0,0,0-17.36-10.83c-21.65-8.44-41.18-4.11-58.94,10.11-5.8,4.64-9.68,4.71-15.4-.11a60.33,60.33,0,0,0-24-12.52c-4.32-1.12-4.34-1.09-4.34,3.2Z" transform="translate(-79.6 -211.07)"/></svg>