<svg id="Capa_1" data-name="Capa 1" xmlns="http://www.w3.org/2000/svg" viewBox="0 0 436.09 436.09"><defs><style>.cls-1{fill:#fff;}.cls-2{fill:#85afd4;}</style></defs><circle class="cls-1" cx="218.04" cy="218.04" r="218.04"/><path class="cls-2" d="M268.62,418.44q-54.41,0-108.81,0c-8.41,0-7.2,1.11-7.29-7.52-.06-5.82.13-11.65-.07-17.46-.1-3.09,1-4.29,4-3.94a29,29,0,0,0,3.49,0q104.58,0,209.15-.07c8.17,0,16.28-1,23.9-4.14,9.6-3.95,17-10.19,18-21.26,1-10.91-1.63-20.59-11.71-26.71-13.79-8.37-36.08-3.49-44.07,9.61-1.28,2.1-2.78,4.52-2.82,6.82-.11,6.07-3.1,7.38-8.49,6.91-5-.43-10-.08-15-.09-6,0-6.37-.32-5.52-6.14,3.19-21.86,14.53-37.89,35.43-45.52,22-8,43.68-6.52,62.95,7.88,31.47,23.5,27.08,73.09-7.68,91.62a86.75,86.75,0,0,1-41.67,10Q320.53,418.39,268.62,418.44Z" transform="translate(-67.79 -166.09)"/><path class="cls-2" d="M199.9,361.35c-14.31,0-28.62-.1-42.93.07-3.46,0-4.67-.93-4.53-4.48.25-6.64.31-13.32,0-19.95-.19-4,1.37-4.64,4.91-4.62,25.63.13,51.26.23,76.88,0,7.58-.08,15.26-.17,22.66-2.66,10.87-3.67,16.12-10.6,15.49-20.94-.56-9.18-8.24-17.26-18.2-19.17-12.48-2.38-19.46,1-24.86,12.29-.78,1.64-1.85,1.64-3.16,1.64-8.49,0-17-.07-25.46,0-4.8.07-3.39-3.32-3-5.55,2.3-13.23,9.53-23.14,20.94-30.09,26.36-16.07,66.3-8,81,22.4,10.64,22,2.78,47.41-18.83,60.41-12.18,7.32-25.52,10.24-39.47,10.57S213.71,361.35,199.9,361.35Z" transform="translate(-67.79 -166.09)"/><path class="cls-2" d="M265.78,446.43c14.8,0,29.61-.22,44.4.05,17.1.32,33.3,4,47.05,14.94a46.57,46.57,0,0,1,16.58,26.51c.76,3.27-.08,4.48-3.59,4.4-8.15-.2-16.3-.08-24.45-.06-1.87,0-3.48,0-4.56-2.1-4.84-9.47-13.65-12.47-23.33-13.95-10.09-1.54-20.24-.73-30.36-.79q-34.68-.18-69.36,0c-3.64,0-5-.84-4.83-4.69.31-6.64.27-13.31,0-19.95-.13-3.54,1.08-4.51,4.54-4.48C233.84,446.51,249.81,446.42,265.78,446.43Z" transform="translate(-67.79 -166.09)"/><path class="cls-2" d="M173.55,476.09c-5.65,0-11.3-.16-16.93.06-3.33.14-4.27-1.08-4.18-4.3.22-7.13.18-14.28,0-21.41-.07-2.93.73-4.12,3.89-4.08,11.45.16,22.9.14,34.36,0,2.88,0,3.71,1,3.66,3.79-.14,7.3-.22,14.6,0,21.9.12,3.49-1.35,4.18-4.41,4.08C184.51,476,179,476.09,173.55,476.09Z" transform="translate(-67.79 -166.09)"/></svg>